<?xml version="1.0" encoding="UTF-8"?>
<!DOCTYPE svg PUBLIC "-//W3C//DTD SVG 1.1//EN" "http://www.w3.org/Graphics/SVG/1.1/DTD/svg11.dtd">
<svg version="1.1" xmlns="http://www.w3.org/2000/svg" xmlns:xlink="http://www.w3.org/1999/xlink" x="0" y="0" width="200" height="200" viewBox="0, 0, 200, 200">
  <g id="Background">
    <rect x="0" y="0" width="200" height="200" fill="#000000" fill-opacity="0"/>
  </g>
  <g id="Layer_1">
    <g>
      <path d="M100.478,5.282 C100.478,5.282 113.971,17.983 120.25,22.058 C126.507,26.118 134.55,40.591 135.628,49.751 C136.705,58.911 134.587,66.858 132.432,72.785 C130.277,78.712 126.266,86.43 124.111,92.357 C121.956,98.283 117.733,108.217 116.655,112.528 C115.577,116.838 115.59,121.847 115.59,121.847 L119.118,122.247 C119.118,122.247 120.254,108.677 125.642,96.284 C129.414,86.586 143.084,72.452 143.084,72.452 C143.084,72.452 152.961,63.585 168.048,64.663 C183.134,65.741 192.346,81.505 192.346,81.505 C192.346,81.505 198.448,94.622 194.676,105.937 C190.904,117.252 183.567,122.748 177.101,125.442 C170.636,128.136 166.117,126.441 166.117,126.441 C166.117,126.441 169.845,114.525 159.127,107.468 C155.979,105.396 150.101,104.66 144.174,108.431 C138.247,112.203 133.63,124.51 133.63,124.51 C133.63,124.51 137.824,124.777 141.419,127.24 C145.864,130.285 145.057,136.515 143.283,137.958 C137.225,142.884 132.499,142.95 132.499,142.95 C132.499,142.95 131.891,146.67 138.357,153.136 C144.823,159.602 155.532,154.734 155.532,154.734 C155.532,154.734 154.883,164.695 144.415,170.178 C140.221,172.375 132.565,170.711 128.172,166.051 C124.665,162.331 122.313,157.263 121.115,153.535 C119.917,149.807 118.852,145.081 118.852,145.081 L115.39,145.147 C115.39,145.147 115.789,150.406 119.318,158.927 C122.846,167.449 126.641,171.576 126.641,171.576 C126.641,171.576 121.781,180.696 115.124,186.355 C109.898,190.796 101.069,195.718 101.069,195.718 C101.069,195.718 93.456,192.892 86.365,186.688 C81.039,182.028 74.649,172.042 74.649,172.042 C74.649,172.042 79.421,165.258 82.371,157.862 C85.321,150.467 85.633,145.347 85.633,145.347 L82.171,145.28 C82.171,145.28 81.572,150.34 78.643,157.063 C75.714,163.787 71.566,167.178 69.279,168.778 C66.993,170.378 67.746,171.089 59.581,170.933 C51.415,170.777 47.754,163.121 46.622,160.925 C45.491,158.728 44.891,154.401 44.891,154.401 C44.891,154.401 51.623,157.444 57.939,155.865 C59.537,155.466 61.704,155.43 65.528,149.874 C69.057,144.748 68.391,142.751 68.391,142.751 C68.391,142.751 64.929,142.484 61.601,140.82 C58.436,139.238 54.786,136.023 56.941,130.635 C59.096,125.247 67.459,124.643 67.459,124.643 C67.459,124.643 67.144,119.887 63.398,115.057 C60.868,111.795 61.334,111.862 58.139,108.866 C54.944,105.87 50.883,105.87 50.883,105.87 C50.883,105.87 43.416,104.121 36.951,111.664 C32.64,119.746 35.039,126.308 35.039,126.308 C35.039,126.308 18.995,129.17 9.01,112.195 C6.413,107.781 2.552,94.287 9.476,80.773 C10.424,78.921 17.155,65.529 34.44,64.463 C49.551,63.531 59.936,74.183 59.936,74.183 C59.936,74.183 65.336,75.456 73.65,92.889 C81.905,110.198 82.171,121.847 82.171,121.847 L86.099,121.847 C86.099,121.847 85.226,108.033 78.177,95.019 C72.119,83.835 67.169,68.065 66.128,64.397 C64.596,59.004 63.444,46.027 70.987,34.173 C78.531,22.32 83.858,19.359 87.63,16.665 C91.402,13.971 100.478,5.282 100.478,5.282 z M104.614,145.836 L96.324,145.955 L100.587,177.931 L104.614,145.836 z M100.478,32.11 L96.151,121.248 L105.338,121.315 L100.478,32.11 z M25.32,77.911 L25.519,86.898 L17.664,92.556 L27.183,93.555 L28.515,104.206 L34.107,94.686 L45.69,94.686 L37.635,87.963 L41.563,79.442 L32.509,83.236 L25.32,77.911 z M175.836,77.844 L168.314,83.236 L159.835,79.34 L163.521,87.896 L155.665,94.686 L166.65,94.553 L172.708,104.14 L174.039,93.954 L183.492,92.689 L175.77,86.964 L175.836,77.844 z" fill="#000000"/>
      <path d="M100.478,5.282 C100.478,5.282 113.971,17.983 120.25,22.058 C126.507,26.118 134.55,40.591 135.628,49.751 C136.705,58.911 134.587,66.858 132.432,72.785 C130.277,78.712 126.266,86.43 124.111,92.357 C121.956,98.283 117.733,108.217 116.655,112.528 C115.577,116.838 115.59,121.847 115.59,121.847 L119.118,122.247 C119.118,122.247 120.254,108.677 125.642,96.284 C129.414,86.586 143.084,72.452 143.084,72.452 C143.084,72.452 152.961,63.585 168.048,64.663 C183.134,65.741 192.346,81.505 192.346,81.505 C192.346,81.505 198.448,94.622 194.676,105.937 C190.904,117.252 183.567,122.748 177.101,125.442 C170.636,128.136 166.117,126.441 166.117,126.441 C166.117,126.441 169.845,114.525 159.127,107.468 C155.979,105.396 150.101,104.66 144.174,108.431 C138.247,112.203 133.63,124.51 133.63,124.51 C133.63,124.51 137.824,124.777 141.419,127.24 C145.864,130.285 145.057,136.515 143.283,137.958 C137.225,142.884 132.499,142.95 132.499,142.95 C132.499,142.95 131.891,146.67 138.357,153.136 C144.823,159.602 155.532,154.734 155.532,154.734 C155.532,154.734 154.883,164.695 144.415,170.178 C140.221,172.375 132.565,170.711 128.172,166.051 C124.665,162.331 122.313,157.263 121.115,153.535 C119.917,149.807 118.852,145.081 118.852,145.081 L115.39,145.147 C115.39,145.147 115.789,150.406 119.318,158.927 C122.846,167.449 126.641,171.576 126.641,171.576 C126.641,171.576 121.781,180.696 115.124,186.355 C109.898,190.796 101.069,195.718 101.069,195.718 C101.069,195.718 93.456,192.892 86.365,186.688 C81.039,182.028 74.649,172.042 74.649,172.042 C74.649,172.042 79.421,165.258 82.371,157.862 C85.321,150.467 85.633,145.347 85.633,145.347 L82.171,145.28 C82.171,145.28 81.572,150.34 78.643,157.063 C75.714,163.787 71.566,167.178 69.279,168.778 C66.993,170.378 67.746,171.089 59.581,170.933 C51.415,170.777 47.754,163.121 46.622,160.925 C45.491,158.728 44.891,154.401 44.891,154.401 C44.891,154.401 51.623,157.444 57.939,155.865 C59.537,155.466 61.704,155.43 65.528,149.874 C69.057,144.748 68.391,142.751 68.391,142.751 C68.391,142.751 64.929,142.484 61.601,140.82 C58.436,139.238 54.786,136.023 56.941,130.635 C59.096,125.247 67.459,124.643 67.459,124.643 C67.459,124.643 67.144,119.887 63.398,115.057 C60.868,111.795 61.334,111.862 58.139,108.866 C54.944,105.87 50.883,105.87 50.883,105.87 C50.883,105.87 43.416,104.121 36.951,111.664 C32.64,119.746 35.039,126.308 35.039,126.308 C35.039,126.308 18.995,129.17 9.01,112.195 C6.413,107.781 2.552,94.287 9.476,80.773 C10.424,78.921 17.155,65.529 34.44,64.463 C49.551,63.531 59.936,74.183 59.936,74.183 C59.936,74.183 65.336,75.456 73.65,92.889 C81.905,110.198 82.171,121.847 82.171,121.847 L86.099,121.847 C86.099,121.847 85.226,108.033 78.177,95.019 C72.119,83.835 67.169,68.065 66.128,64.397 C64.596,59.004 63.444,46.027 70.987,34.173 C78.531,22.32 83.858,19.359 87.63,16.665 C91.402,13.971 100.478,5.282 100.478,5.282 z M104.614,145.836 L96.324,145.955 L100.587,177.931 L104.614,145.836 z M100.478,32.11 L96.151,121.248 L105.338,121.315 L100.478,32.11 z M25.32,77.911 L25.519,86.898 L17.664,92.556 L27.183,93.555 L28.515,104.206 L34.107,94.686 L45.69,94.686 L37.635,87.963 L41.563,79.442 L32.509,83.236 L25.32,77.911 z M175.836,77.844 L168.314,83.236 L159.835,79.34 L163.521,87.896 L155.665,94.686 L166.65,94.553 L172.708,104.14 L174.039,93.954 L183.492,92.689 L175.77,86.964 L175.836,77.844 z" fill-opacity="0" stroke="#000000" stroke-width="3"/>
    </g>
  </g>
</svg>
